<svg width="30" height="28" viewBox="0 0 30 28" fill="none" xmlns="http://www.w3.org/2000/svg">
<path d="M26.0497 4.76088C25.4112 4.12213 24.6532 3.61543 23.8189 3.26973C22.9845 2.92403 22.0903 2.74609 21.1872 2.74609C20.2841 2.74609 19.3898 2.92403 18.5555 3.26973C17.7211 3.61543 16.9631 4.12213 16.3247 4.76088L14.9997 6.08588L13.6747 4.76088C12.385 3.47126 10.636 2.74676 8.81216 2.74676C6.98837 2.74676 5.23928 3.47126 3.94966 4.76088C2.66005 6.05049 1.93555 7.79958 1.93555 9.62337C1.93555 11.4472 2.66005 13.1963 3.94966 14.4859L14.9997 25.5359L26.0497 14.4859C26.6884 13.8474 27.1951 13.0894 27.5408 12.2551C27.8865 11.4207 28.0644 10.5265 28.0644 9.62337C28.0644 8.72027 27.8865 7.826 27.5408 6.99168C27.1951 6.15736 26.6884 5.39932 26.0497 4.76088Z" stroke="#1E1E1E" stroke-width="4" stroke-linecap="round" stroke-linejoin="round"/>
</svg>
